# xmcd CD database file
#
# Track frame offsets:
#	150
#	26972
#	46971
#	68324
#	90505
#	107265
#	125766
#	143462
#	159033
#	177434
#
# Disc length: 2713 seconds
#
# Revision: 0
# Processed by: cddbd v1.5.2PL0 Copyright (c) Steve Scherf et al.
# Submitted via: CDex 1.51
#
DISCID=720a970a
DTITLE=Kevin Deal - Seven
DYEAR=2009
DGENRE=Country
TTITLE0=200 Cops
TTITLE1=Behind the Shield
TTITLE2=Cactus Flower
TTITLE3=Hollywood Kiss
TTITLE4=Guard My Heart
TTITLE5=The King Has No Clothes
TTITLE6=If You Hurt the Ones You Love
TTITLE7=20 Year Old Trucks
TTITLE8=Graduation Day
TTITLE9=	 - Working Man #7
EXTD=YEAR: 2009
EXTT0=
EXTT1=
EXTT2=
EXTT3=
EXTT4=
EXTT5=
EXTT6=
EXTT7=
EXTT8=
EXTT9=
PLAYORDER=
